<?xml version="1.0" encoding="UTF-8" standalone="no"?>
<!DOCTYPE svg PUBLIC "-//W3C//DTD SVG 1.1//EN" "http://www.w3.org/Graphics/SVG/1.1/DTD/svg11.dtd">
<svg width="100%" height="100%" viewBox="0 0 60 60" version="1.1" xmlns="http://www.w3.org/2000/svg" xmlns:xlink="http://www.w3.org/1999/xlink" xml:space="preserve" style="fill-rule:evenodd;clip-rule:evenodd;stroke-linecap:round;stroke-linejoin:round;stroke-miterlimit:1.41421;">
    <g transform="matrix(1,0,0,1,-71.2002,-73.421)">
        <g transform="matrix(0.103669,0,0,0.103669,71.3603,71.8264)">
            <path d="M202.364,415.062C199.671,419.092 197.032,422.364 194.449,424.875C191.865,427.386 189.361,428.644 186.939,428.644C185.71,428.644 184.789,428.353 184.174,427.775C183.126,426.835 182.601,425.951 182.601,425.119C182.601,424.289 182.872,423.676 183.415,423.274C188.872,419.336 194.926,407.769 201.579,388.576L204.776,379.468C208.463,369.058 211.588,362.605 214.156,360.112C215.058,359.425 215.999,359.083 216.975,359.083C217.951,359.083 218.801,359.236 219.523,359.544C220.247,359.851 220.879,360.241 221.421,360.708C222.649,361.793 223.264,363.06 223.264,364.505C223.264,365.047 223.011,365.823 222.505,366.834C221.998,367.85 221.421,369.169 220.771,370.793L213.884,389.932C222.668,388.342 229.914,384.71 235.626,379.034C240.976,373.723 243.651,368.265 243.651,362.662C243.651,357.349 241.264,353.862 236.494,352.196C234.868,351.62 232.977,351.33 230.828,351.33C228.676,351.33 226.48,351.602 224.24,352.144C221.998,352.685 219.795,353.389 217.624,354.257C213.25,356.028 209.672,358.107 206.889,360.492C206.168,361.179 205.371,361.521 204.505,361.521C203.636,361.521 202.823,361.342 202.064,360.98C201.305,360.62 200.637,360.148 200.058,359.57C198.722,358.303 198.052,357.013 198.052,355.694C198.052,354.374 198.522,353.19 199.462,352.143C200.403,351.093 201.649,350.145 203.204,349.295C204.757,348.445 206.547,347.687 208.571,347.019C210.594,346.35 212.674,345.781 214.807,345.309C219.142,344.407 223.454,343.955 227.738,343.955C232.022,343.955 235.943,344.489 239.503,345.554C243.064,346.621 246,348.058 248.314,349.866C252.977,353.479 255.308,358.071 255.308,363.637L255.308,364.505C254.982,371.333 252.399,377.355 247.554,382.559C243.325,387.077 237.866,390.639 231.18,393.24C225.143,395.628 219.431,396.819 214.048,396.819L212.638,396.819C212.169,396.819 211.716,396.785 211.283,396.712C208.031,404.914 205.057,411.034 202.364,415.062Z" style="fill:rgb(102,65,71);fill-rule:nonzero;"/>
        </g>
        <g transform="matrix(0.103669,0,0,0.103669,71.3603,71.8264)">
            <path d="M288.749,413.843C288.749,417.169 289.922,418.829 292.272,418.829C293.899,418.829 295.246,418.576 296.313,418.069C297.377,417.564 298.09,417.312 298.454,417.312C299.213,417.312 299.593,417.709 299.593,418.504C299.593,421.612 297.966,424.288 294.713,426.525C291.278,428.876 287.775,429.454 284.195,428.259C281.844,427.431 280.109,425.64 278.99,422.895C278.447,421.485 278.175,420.204 278.175,419.044C278.175,417.167 278.356,415.176 278.717,413.081C275.355,419.948 271.181,424.684 266.193,427.284C264.207,428.297 262.091,428.805 259.85,428.805C257.609,428.805 255.667,428.342 254.021,427.422C252.376,426.499 250.976,425.226 249.819,423.602C247.469,420.204 246.402,415.936 246.619,410.801C246.837,404.368 248.733,398.063 252.313,391.883C255.602,386.1 259.758,381.383 264.783,377.731C269.806,374.008 274.507,372.145 278.881,372.145C283.253,372.145 286.777,374.154 289.452,378.166C291.946,374.154 294.15,372.145 296.067,372.145C298.127,372.145 299.681,372.525 300.728,373.285C302.715,374.731 303.421,375.995 302.842,377.081C293.771,395.66 289.108,407.227 288.855,411.78C288.785,412.433 288.749,413.118 288.749,413.843ZM258.657,414.057C258.657,418.397 260.049,420.565 262.833,420.565C264.965,420.565 267.583,418.758 270.694,415.145C275.247,409.83 279.277,402.671 282.785,393.674C283.904,390.853 284.845,388.035 285.604,385.214C285.459,382.758 284.429,380.952 282.513,379.793C281.863,379.396 280.894,379.196 279.613,379.196C278.329,379.196 276.829,379.666 275.112,380.604C273.396,381.545 271.733,382.828 270.125,384.455C268.517,386.082 267.017,388.006 265.626,390.229C264.233,392.453 263.014,394.867 261.966,397.469C259.76,403.036 258.657,408.565 258.657,414.057Z" style="fill:rgb(102,65,71);fill-rule:nonzero;"/>
        </g>
        <g transform="matrix(0.103669,0,0,0.103669,71.3603,71.8264)">
            <path d="M310.678,426.094C309.772,425.155 309.041,423.953 308.482,422.49C307.92,421.024 307.642,419.326 307.642,417.393C307.642,415.46 308.083,412.865 308.968,409.613C309.855,406.361 310.984,402.655 312.358,398.498L316.914,384.996C323.381,366.203 327.124,351.673 328.135,341.406C328.462,338.371 329.943,336.852 332.582,336.852C334.243,336.852 335.618,337.248 336.702,338.044C338.799,339.637 339.81,341.405 339.738,343.356C339.667,345.307 339.322,347.685 338.709,350.488C338.093,353.288 337.298,356.342 336.322,359.651C335.348,362.959 334.227,366.454 332.961,370.14L325.479,392.153C321.178,404.662 319.027,412.739 319.027,416.389C319.027,418.339 319.824,419.316 321.415,419.316C322.932,419.316 324.313,418.99 325.562,418.339C326.809,417.69 327.612,417.363 327.974,417.363C328.733,417.363 329.112,417.743 329.112,418.503C329.112,421.721 327.466,424.412 324.178,426.581C321.974,428.062 319.958,428.805 318.133,428.805C316.308,428.805 314.834,428.586 313.713,428.154C312.593,427.72 311.579,427.035 310.678,426.094Z" style="fill:rgb(102,65,71);fill-rule:nonzero;"/>
        </g>
        <g transform="matrix(0.103669,0,0,0.103669,71.3603,71.8264)">
            <path d="M335.575,409.287C335.719,406.142 336.244,403.133 337.148,400.26C338.05,397.389 339.262,394.605 340.78,391.91C342.299,389.219 344.078,386.672 346.119,384.264C348.163,381.863 350.377,379.756 352.763,377.95C357.93,374.084 363.155,372.146 368.432,372.146C374.614,372.146 378.733,374.696 380.795,379.792C381.517,381.526 381.858,383.578 381.823,385.946C381.787,388.313 381.335,390.5 380.468,392.505C379.601,394.513 378.399,396.34 376.863,397.984C375.325,399.627 373.503,401.097 371.386,402.403C369.272,403.704 366.968,404.805 364.475,405.709C359.342,407.517 353.848,408.454 347.993,408.527C347.848,409.035 347.758,409.794 347.721,410.801C347.685,411.817 347.792,412.947 348.046,414.193C348.3,415.441 348.733,416.55 349.348,417.527C350.65,419.695 352.528,420.777 354.987,420.777C359.179,420.777 363.265,419.552 367.24,417.094C368.649,416.263 369.799,415.405 370.682,414.519C371.568,413.633 372.335,413.19 372.988,413.19C373.639,413.19 374.208,413.579 374.695,414.355C375.182,415.134 375.426,416.008 375.426,416.985C375.426,418.902 374.884,420.563 373.799,421.974C369.246,426.525 362.467,428.805 353.468,428.805C348.156,428.805 343.89,427.215 340.673,424.034C337.058,420.419 335.358,415.505 335.575,409.287ZM367.238,379.359C363.442,379.359 359.793,381.963 356.287,387.167C353.321,391.648 350.938,396.961 349.13,403.104C355.166,402.491 360.409,400.108 364.853,395.95C368.937,392.048 370.98,388.307 370.98,384.727C370.979,381.149 369.732,379.359 367.238,379.359Z" style="fill:rgb(102,65,71);fill-rule:nonzero;"/>
        </g>
        <g transform="matrix(0.103669,0,0,0.103669,71.3603,71.8264)">
            <path d="M414.962,414.057C416.011,414.057 416.533,414.764 416.533,416.174C416.533,417.365 416.173,418.524 415.451,419.646C414.473,421.739 412.523,423.729 409.593,425.609C406.267,427.741 402.928,428.807 399.564,428.807C393.744,428.807 390.058,426.203 388.504,420.997C386.661,414.816 389.425,401.715 396.799,381.69C392.643,381.328 390.382,380.604 390.022,379.521C389.914,379.196 389.86,378.842 389.86,378.464C389.86,378.084 390.03,377.643 390.375,377.138C390.719,376.63 391.16,376.141 391.704,375.672C392.969,374.624 394.251,374.099 395.553,374.099L399.838,374.099C403.74,364.954 406.525,359.75 408.186,358.484C408.98,357.908 409.868,357.616 410.843,357.616C411.818,357.616 412.634,357.745 413.283,357.997C413.932,358.25 414.511,358.611 415.016,359.082C416.173,360.165 416.751,361.375 416.751,362.714C416.751,363.435 416.533,364.269 416.101,365.209L412.091,373.938L413.391,373.938C415.632,373.938 417.439,373.919 418.812,373.883L421.904,373.828C422.591,373.792 423.448,373.773 424.479,373.773C425.507,373.773 426.023,374.155 426.023,374.914C426.023,379.685 420.386,382.068 409.107,382.068L408.674,382.068L404.987,391.614C400.829,402.888 398.752,410.79 398.752,415.305C398.752,416.57 399.04,417.553 399.62,418.26C400.195,418.965 401.28,419.317 402.871,419.317C404.461,419.317 405.909,419.046 407.208,418.505C408.511,417.963 409.648,417.358 410.627,416.69C411.602,416.02 412.44,415.416 413.146,414.874C413.851,414.332 414.456,414.057 414.962,414.057Z" style="fill:rgb(102,65,71);fill-rule:nonzero;"/>
        </g>
        <g transform="matrix(0.103669,0,0,0.103669,71.3603,71.8264)">
            <path d="M455.812,414.057C456.861,414.057 457.387,414.764 457.387,416.174C457.387,417.365 457.025,418.524 456.299,419.646C455.324,421.739 453.371,423.729 450.442,425.609C447.118,427.741 443.778,428.807 440.415,428.807C434.594,428.807 430.907,426.203 429.355,420.997C427.511,414.816 430.275,401.715 437.65,381.69C433.493,381.328 431.233,380.604 430.873,379.521C430.765,379.196 430.71,378.842 430.71,378.464C430.71,378.084 430.881,377.643 431.226,377.138C431.568,376.63 432.011,376.141 432.556,375.672C433.822,374.624 435.1,374.099 436.403,374.099L440.686,374.099C444.59,364.954 447.373,359.75 449.037,358.484C449.829,357.908 450.719,357.616 451.691,357.616C452.668,357.616 453.482,357.745 454.131,357.997C454.781,358.25 455.361,358.611 455.867,359.082C457.025,360.165 457.605,361.375 457.605,362.714C457.605,363.435 457.387,364.269 456.952,365.209L452.939,373.938L454.24,373.938C456.484,373.938 458.289,373.919 459.665,373.883L462.756,373.828C463.441,373.792 464.297,373.773 465.331,373.773C466.36,373.773 466.874,374.155 466.874,374.914C466.874,379.685 461.238,382.068 449.957,382.068L449.525,382.068L445.836,391.614C441.679,402.888 439.604,410.79 439.604,415.305C439.604,416.57 439.891,417.553 440.469,418.26C441.047,418.965 442.131,419.317 443.722,419.317C445.313,419.317 446.76,419.046 448.06,418.505C449.36,417.963 450.502,417.358 451.477,416.69C452.453,416.02 453.291,415.416 453.997,414.874C454.701,414.332 455.307,414.057 455.812,414.057Z" style="fill:rgb(102,65,71);fill-rule:nonzero;"/>
        </g>
        <g transform="matrix(0.103669,0,0,0.103669,71.3603,71.8264)">
            <path d="M464.65,409.287C464.793,406.142 465.319,403.133 466.223,400.26C467.126,397.389 468.336,394.605 469.855,391.91C471.376,389.219 473.153,386.672 475.193,384.264C477.238,381.863 479.453,379.756 481.838,377.95C487.008,374.084 492.23,372.146 497.508,372.146C503.689,372.146 507.811,374.696 509.87,379.792C510.592,381.526 510.934,383.578 510.898,385.946C510.862,388.313 510.41,390.5 509.544,392.505C508.676,394.513 507.474,396.34 505.938,397.984C504.401,399.627 502.577,401.097 500.464,402.403C498.348,403.704 496.043,404.805 493.549,405.709C488.417,407.517 482.922,408.454 477.069,408.527C476.923,409.035 476.832,409.794 476.796,410.801C476.761,411.817 476.869,412.947 477.123,414.193C477.375,415.441 477.81,416.55 478.424,417.527C479.725,419.695 481.603,420.777 484.064,420.777C488.256,420.777 492.34,419.552 496.317,417.094C497.724,416.263 498.875,415.405 499.76,414.519C500.643,413.633 501.413,413.19 502.063,413.19C502.714,413.19 503.284,413.579 503.771,414.355C504.26,415.134 504.501,416.008 504.501,416.985C504.501,418.902 503.959,420.563 502.876,421.974C498.321,426.525 491.544,428.805 482.545,428.805C477.23,428.805 472.965,427.215 469.748,424.034C466.133,420.419 464.434,415.505 464.65,409.287ZM496.315,379.359C492.518,379.359 488.87,381.963 485.362,387.167C482.396,391.648 480.012,396.961 478.205,403.104C484.243,402.491 489.484,400.108 493.931,395.95C498.013,392.048 500.055,388.307 500.055,384.727C500.055,381.149 498.808,379.359 496.315,379.359Z" style="fill:rgb(102,65,71);fill-rule:nonzero;"/>
        </g>
        <g transform="matrix(0.103669,0,0,0.103669,71.3603,71.8264)">
            <path d="M167.22,430.56C162.375,433.807 156.049,434.032 152.762,434.032C149.472,434.032 145.477,433.816 140.779,433.381C139.586,435.804 138.448,438.986 137.364,442.926L132.375,460.817C135.771,460.272 138.366,460.003 140.155,460.003C141.943,460.003 143.417,460.186 144.574,460.545C145.728,460.907 146.761,461.415 147.665,462.064C149.759,463.475 150.79,465.209 150.755,467.27C150.717,469.33 149.706,470.361 147.717,470.361C146.668,470.325 145.575,470.26 144.437,470.172C143.298,470.082 141.951,470.018 140.398,469.981C137,469.91 133.313,470.054 129.338,470.416C128.434,473.523 126.943,477.348 124.863,481.882C122.783,486.42 120.734,490.261 118.71,493.403C114.374,500.127 109.962,504.284 105.482,505.875C104.829,506.129 104.171,506.256 103.502,506.256C102.832,506.256 102.227,506.137 101.686,505.901C101.144,505.668 100.691,505.372 100.331,505.01C99.572,504.323 99.193,503.563 99.193,502.733C99.193,501.9 99.464,501.286 100.005,500.885C105.138,497.165 110.416,487.785 115.837,472.749C115.439,472.858 115.042,472.964 114.644,473.074C114.245,473.181 113.903,473.291 113.614,473.399C113.325,473.505 112.989,473.563 112.61,473.563C112.231,473.563 111.815,473.444 111.362,473.208C110.911,472.976 110.503,472.694 110.144,472.371C109.347,471.645 108.951,470.94 108.951,470.254C108.951,469.568 109.267,468.926 109.899,468.331C110.53,467.734 111.318,467.164 112.256,466.623C113.994,465.61 116.18,464.67 118.818,463.801L121.745,454.694C125.178,444.031 128.469,436.64 131.614,432.519C128.649,432.268 126.463,432.14 125.053,432.14C120.788,432.14 117.715,432.737 115.836,433.927C113.994,435.121 112.7,436.414 111.959,437.805C111.218,439.197 110.83,440.165 110.794,440.707C110.685,441.717 110.359,442.359 109.818,442.629C109.276,442.901 108.617,443.036 107.84,443.036C107.06,443.036 106.257,442.757 105.425,442.196C104.595,441.636 103.907,440.923 103.366,440.054C102.207,438.283 101.756,436.287 102.01,434.063C102.262,431.838 102.995,429.927 104.205,428.316C105.416,426.708 106.852,425.396 108.517,424.385C111.588,422.508 114.831,421.565 118.247,421.565C121.664,421.565 124.898,421.739 127.953,422.081C131.007,422.425 134.054,422.814 137.089,423.249C145.149,424.331 150.282,424.872 152.487,424.872C152.487,424.872 172.887,428.512 172.973,396.368C173.048,369.144 188.449,415.513 167.22,430.56Z" style="fill:rgb(102,65,71);fill-rule:nonzero;"/>
        </g>
        <g transform="matrix(0.103669,0,0,0.103669,71.3603,71.8264)">
            <path d="M199.172,491.448C199.172,494.777 200.345,496.438 202.696,496.438C204.323,496.438 205.669,496.183 206.735,495.678C207.801,495.173 208.515,494.917 208.876,494.917C209.637,494.917 210.015,495.316 210.015,496.11C210.015,499.219 208.388,501.893 205.135,504.135C201.7,506.485 198.196,507.06 194.617,505.868C192.267,505.039 190.532,503.247 189.411,500.501C188.87,499.092 188.599,497.809 188.599,496.651C188.599,494.775 188.78,492.783 189.141,490.688C185.78,497.557 181.605,502.29 176.617,504.891C174.628,505.904 172.513,506.41 170.274,506.41C168.031,506.41 166.089,505.952 164.445,505.029C162.8,504.105 161.399,502.832 160.243,501.206C157.892,497.809 156.827,493.543 157.044,488.409C157.26,481.977 159.159,475.67 162.737,469.486C166.026,463.705 170.182,458.989 175.206,455.337C180.231,451.614 184.93,449.752 189.304,449.752C193.679,449.752 197.201,451.759 199.877,455.77C202.371,451.759 204.576,449.752 206.491,449.752C208.553,449.752 210.105,450.132 211.153,450.894C213.141,452.337 213.847,453.602 213.268,454.687C204.196,473.266 199.533,484.833 199.281,489.385C199.208,490.04 199.172,490.727 199.172,491.448ZM169.081,491.664C169.081,496.004 170.472,498.172 173.256,498.172C175.387,498.172 178.008,496.365 181.117,492.75C185.671,487.435 189.7,480.28 193.207,471.278C194.327,468.459 195.267,465.64 196.028,462.82C195.882,460.363 194.852,458.556 192.937,457.4C192.286,457.001 191.318,456.802 190.036,456.802C188.751,456.802 187.253,457.274 185.536,458.211C183.819,459.154 182.156,460.436 180.549,462.061C178.939,463.69 177.439,465.613 176.049,467.838C174.657,470.058 173.439,472.471 172.39,475.075C170.182,480.641 169.081,486.171 169.081,491.664Z" style="fill:rgb(102,65,71);fill-rule:nonzero;"/>
        </g>
        <g transform="matrix(0.103669,0,0,0.103669,71.3603,71.8264)">
            <path d="M217.226,487.166C217.298,484.021 217.795,480.885 218.718,477.758C219.64,474.634 220.866,471.678 222.404,468.893C223.94,466.11 225.766,463.545 227.881,461.194C229.995,458.846 232.299,456.82 234.794,455.126C239.999,451.545 245.474,449.755 251.22,449.755C257.15,449.755 261.179,452.124 263.312,456.86C264.07,458.557 264.423,460.481 264.369,462.634C264.315,464.783 263.962,466.752 263.312,468.54C262.663,470.331 261.847,471.928 260.871,473.341C258.667,476.522 256.446,478.112 254.205,478.112C251.708,478.112 249.866,477.424 248.672,476.052C247.623,474.858 247.299,473.466 247.695,471.876C247.806,471.405 248.131,470.98 248.672,470.603C249.214,470.22 249.901,469.619 250.735,468.786C253.082,466.327 254.312,463.454 254.419,460.166C254.492,457.924 253.119,456.803 250.3,456.803C247.265,456.803 244.082,458.502 240.756,461.901C235.912,466.854 232.496,473.195 230.51,480.93C228.776,487.653 229.1,492.568 231.486,495.679C232.894,497.486 234.81,498.388 237.233,498.388C241.317,498.388 245.255,496.944 249.053,494.052C250.21,493.148 251.148,492.226 251.871,491.288C252.593,490.346 253.262,489.876 253.875,489.876C254.491,489.876 255.007,490.174 255.421,490.771C255.836,491.368 256.045,492.135 256.045,493.076C256.045,495.209 255.087,497.306 253.17,499.363C248.255,504.063 242.346,506.413 235.442,506.413C229.549,506.413 224.995,504.733 221.778,501.37C218.601,498.045 217.082,493.311 217.226,487.166Z" style="fill:rgb(102,65,71);fill-rule:nonzero;"/>
        </g>
        <g transform="matrix(0.103669,0,0,0.103669,71.3603,71.8264)">
            <path d="M299.669,491.664C300.717,491.664 301.241,492.37 301.241,493.78C301.241,494.973 300.879,496.13 300.156,497.251C299.18,499.349 297.229,501.335 294.301,503.216C290.974,505.347 287.632,506.412 284.27,506.412C278.451,506.412 274.763,503.81 273.21,498.605C271.367,492.425 274.131,479.321 281.505,459.295C277.348,458.937 275.089,458.211 274.727,457.13C274.619,456.802 274.565,456.449 274.565,456.07C274.565,455.69 274.735,455.249 275.08,454.741C275.423,454.236 275.865,453.75 276.408,453.277C277.672,452.231 278.955,451.706 280.258,451.706L284.54,451.706C288.446,442.563 291.228,437.357 292.891,436.092C293.685,435.515 294.571,435.225 295.547,435.225C296.523,435.225 297.338,435.351 297.988,435.603C298.638,435.858 299.216,436.219 299.723,436.689C300.878,437.772 301.456,438.985 301.456,440.321C301.456,441.044 301.24,441.876 300.806,442.813L296.794,451.543L298.096,451.543C300.336,451.543 302.142,451.527 303.518,451.488L306.609,451.435C307.294,451.399 308.153,451.378 309.183,451.378C310.213,451.378 310.728,451.759 310.728,452.516C310.728,457.29 305.09,459.676 293.812,459.676L293.379,459.676L289.692,469.217C285.535,480.494 283.457,488.395 283.457,492.913C283.457,494.178 283.745,495.161 284.325,495.863C284.902,496.57 285.986,496.92 287.578,496.92C289.166,496.92 290.614,496.651 291.914,496.109C293.215,495.567 294.355,494.963 295.33,494.293C296.307,493.625 297.147,493.019 297.853,492.481C298.558,491.938 299.162,491.664 299.669,491.664Z" style="fill:rgb(102,65,71);fill-rule:nonzero;"/>
        </g>
        <g transform="matrix(0.103669,0,0,0.103669,71.3603,71.8264)">
            <path d="M316.006,502.185C314.488,500.74 313.295,498.902 312.428,496.679C311.56,494.46 311.108,491.826 311.072,488.791C311.038,485.758 311.408,482.685 312.184,479.576C312.961,476.467 314.064,473.467 315.491,470.576C316.921,467.682 318.638,464.971 320.641,462.441C322.648,459.913 324.863,457.707 327.283,455.825C332.562,451.778 338.037,449.754 343.712,449.754C351.158,449.754 356.202,453.027 358.839,459.568C360.72,464.301 360.826,470.033 359.165,476.756C357.647,482.936 354.862,488.611 350.815,493.78C346.8,498.948 342.067,502.617 336.61,504.787C333.863,505.87 331.161,506.412 328.504,506.412C325.849,506.412 323.481,506.066 321.4,505.381C319.321,504.697 317.526,503.63 316.006,502.185ZM326.36,475.888C325.276,478.563 324.418,481.31 323.785,484.128C323.155,486.946 322.855,489.614 322.891,492.125C322.926,494.638 323.316,496.608 324.056,498.036C324.797,499.465 325.999,500.179 327.661,500.179C329.323,500.179 330.96,499.607 332.568,498.469C334.176,497.331 335.742,495.824 337.259,493.943C338.776,492.065 340.202,489.895 341.541,487.435C342.876,484.98 344.052,482.414 345.064,479.738C347.271,473.92 348.336,468.751 348.264,464.229C348.264,460.258 347.45,457.725 345.823,456.642C345.174,456.207 344.26,455.992 343.085,455.992C341.911,455.992 340.565,456.523 339.046,457.592C337.528,458.655 336.011,460.094 334.493,461.902C332.975,463.709 331.511,465.824 330.101,468.244C328.692,470.667 327.446,473.214 326.36,475.888Z" style="fill:rgb(102,65,71);fill-rule:nonzero;"/>
        </g>
        <g transform="matrix(0.103669,0,0,0.103669,71.3603,71.8264)">
            <path d="M366.271,504.569C365.548,504.027 364.971,503.424 364.538,502.754C364.105,502.085 363.87,501.508 363.834,501.021C363.797,500.531 363.896,499.933 364.132,499.231C364.364,498.524 364.683,497.666 365.08,496.654C372.453,478.509 376.141,466.328 376.141,460.111C376.033,458.379 375.435,457.148 374.353,456.424L373.269,455.665C372.942,455.414 372.769,454.969 372.753,454.336C372.732,453.704 372.958,453.099 373.429,452.518C373.899,451.944 374.515,451.437 375.274,451.002C376.828,450.17 378.425,449.754 380.071,449.754C381.717,449.754 382.999,449.938 383.921,450.295C384.842,450.657 385.63,451.147 386.279,451.761C387.654,453.062 388.349,454.438 388.367,455.882C388.385,457.329 388.222,458.792 387.88,460.271C387.535,461.755 387.129,463.209 386.659,464.639C386.19,466.068 385.719,467.422 385.25,468.704C384.779,469.989 384.473,470.935 384.328,471.55C384.038,472.817 383.932,473.611 384.003,473.936C384.87,473.177 385.396,472.437 385.574,471.711L387.69,467.703C392.387,459.242 396.978,453.64 401.461,450.895C402.762,450.133 404.324,449.753 406.15,449.753C407.974,449.753 409.448,450.398 410.567,451.68C411.689,452.963 412.277,454.382 412.329,455.936C412.387,457.489 412.277,458.781 412.006,459.811C411.735,460.842 411.326,461.809 410.785,462.712C409.593,464.737 408.147,465.749 406.448,465.749C405.977,465.749 405.544,465.586 405.147,465.262L403.954,464.228C402.762,463.183 401.612,462.657 400.511,462.657C399.41,462.657 398.071,463.382 396.5,464.829C394.926,466.273 393.291,468.136 391.592,470.412C385.881,477.967 381.219,486.426 377.605,495.787L375.219,502.075C374.605,503.63 374.062,504.74 373.592,505.41C373.121,506.08 372.427,506.412 371.505,506.412C370.582,506.412 369.662,506.24 368.74,505.895C367.817,505.557 366.995,505.108 366.271,504.569Z" style="fill:rgb(102,65,71);fill-rule:nonzero;"/>
        </g>
        <g transform="matrix(0.103669,0,0,0.103669,71.3603,71.8264)">
            <path d="M468.116,451.328C467.468,450.821 466.689,450.434 465.788,450.162C464.883,449.891 463.825,449.754 462.613,449.754C461.403,449.754 460.201,450.532 459.009,452.085C458.537,452.737 454.401,460.258 446.592,474.641C445.038,477.498 442.653,480.914 439.436,484.889C438.207,486.444 436.949,487.933 435.666,489.362C434.383,490.791 433.145,492.045 431.954,493.131C430.76,494.217 429.65,495.082 428.618,495.735C427.589,496.384 426.647,496.709 425.799,496.709C424.951,496.709 424.362,496.501 424.039,496.087C423.712,495.671 423.55,494.958 423.55,493.944C423.55,492.932 424.109,491.178 425.231,488.685L427.237,484.513C428.104,482.632 429.786,478.763 432.278,472.906C433.181,470.669 434.013,468.498 434.773,466.402C435.532,464.303 436.145,462.364 436.617,460.574C437.087,458.783 437.322,457.166 437.322,455.721C437.322,454.275 436.726,452.954 435.532,451.762C434.954,451.186 434.202,450.705 433.281,450.324C432.36,449.947 431.013,449.756 429.242,449.756C427.472,449.756 425.701,450.172 423.93,451.004C423.099,451.439 422.42,451.945 421.897,452.52C421.372,453.101 421.111,453.707 421.111,454.338C421.111,454.971 421.328,455.416 421.76,455.667C422.951,456.354 423.767,457.041 424.199,457.727C425.176,459.282 423.785,464.231 420.026,472.584L417.096,479.089C416.119,481.257 415.217,483.373 414.386,485.432C413.552,487.493 412.875,489.472 412.353,491.37C411.829,493.268 411.565,494.985 411.565,496.521C411.565,498.058 411.783,499.421 412.217,500.614C413.698,504.485 416.681,506.415 421.163,506.415C424.524,506.415 428.336,504.7 432.602,501.267C434.843,499.456 437.662,496.403 441.06,492.102L444.963,486.897C446.229,485.201 447.386,483.716 448.433,482.45L444.204,495.355C442.831,499.55 441.023,503.997 438.782,508.693C436.142,514.042 426.66,531.994 421.891,536.547C420.263,538.066 418.573,539.395 416.821,540.533C416.797,540.549 416.774,540.558 416.749,540.577C416.72,540.589 416.672,540.595 416.645,540.607C416.391,540.742 415.977,540.999 415.421,541.362C414.159,542.048 412.926,542.532 411.724,542.808L411.756,542.851C410.703,543.034 409.269,543.129 407.402,543.129C405.196,543.129 400.063,542.586 392.003,541.503C392.003,541.503 241.749,504.807 100.192,532.18L100.193,532.181C97.439,532.613 94.595,533.187 91.629,533.96C88.323,534.82 85.42,536.546 82.919,539.142C81.565,540.538 80.506,542.168 79.738,544.03C78.973,545.893 78.745,547.93 79.062,550.144C79.374,552.359 80.315,554.177 81.882,555.601C82.624,556.305 83.469,556.823 84.413,557.156C85.359,557.488 86.207,557.556 86.96,557.36C87.713,557.165 88.317,556.867 88.773,556.467C89.23,556.069 89.383,555.366 89.234,554.36C89.13,553.826 89.263,552.791 89.63,551.261C89.998,549.725 90.922,548.152 92.405,546.533C93.924,544.901 96.747,543.552 100.876,542.479C102.238,542.123 104.387,541.696 107.32,541.193C107.32,541.193 231.51,515.17 397.484,550.523C402.1,551.507 406.176,551.173 409.467,551.173C412.753,551.173 418.697,549.331 422.504,546.91C422.504,546.91 429.295,542.776 431.053,539.638C431.053,539.638 440.118,529.662 448.703,509.314C450.004,506.232 452.001,502.385 454.044,497.468C456.085,492.555 460.541,480.137 467.409,460.221C468.202,457.944 468.88,456.156 469.442,454.853C470.005,453.549 469.563,452.378 468.116,451.328Z" style="fill:rgb(102,65,71);fill-rule:nonzero;"/>
        </g>
        <g transform="matrix(0.103669,0,0,0.103669,71.3603,71.8264)">
            <rect x="198.629" y="253.047" width="44.698" height="15.257" style="fill:white;stroke-width:6.84px;stroke:rgb(102,65,71);"/>
            <g>
                <path d="M235.423,210.758L206.446,210.758L207.195,188.008L234.628,188.008L235.423,210.758Z" style="fill:white;fill-rule:nonzero;stroke-width:6.84px;stroke:rgb(102,65,71);"/>
                <path d="M236.192,232.706L205.722,232.706L206.446,210.758L235.423,210.758L236.192,232.706Z" style="fill:white;fill-rule:nonzero;stroke-width:6.84px;stroke:rgb(102,65,71);"/>
                <path d="M236.904,253.047L205.053,253.047L205.722,232.706L236.192,232.706L236.904,253.047Z" style="fill:white;fill-rule:nonzero;stroke-width:6.84px;stroke:rgb(102,65,71);"/>
                <path d="M233.862,166.061L234.628,188.008L207.195,188.008L207.916,166.061L233.862,166.061Z" style="fill:white;fill-rule:nonzero;stroke-width:6.84px;stroke:rgb(102,65,71);"/>
                <path d="M209.335,122.968L232.354,122.968L233.092,144.113L208.64,144.113L209.335,122.968Z" style="fill:white;fill-rule:nonzero;stroke-width:6.84px;stroke:rgb(102,65,71);"/>
                <path d="M208.64,144.113L233.092,144.113L233.862,166.061L207.916,166.061L208.64,144.113Z" style="fill:white;fill-rule:nonzero;stroke-width:6.84px;stroke:rgb(102,65,71);"/>
            </g>
        </g>
        <g transform="matrix(0.103669,0,0,0.103669,71.3603,71.8264)">
            <circle cx="403.918" cy="143.532" r="25.471" style="fill:white;stroke-width:6.84px;stroke:rgb(102,65,71);"/>
        </g>
        <g transform="matrix(0.103669,0,0,0.103669,71.3603,71.8264)">
            <rect x="361.764" y="181.538" width="84.31" height="159.253" style="fill:white;stroke-width:6.84px;stroke:rgb(102,65,71);"/>
            <rect x="361.764" y="162.534" width="84.31" height="19.004" style="fill:white;stroke-width:6.84px;stroke:rgb(102,65,71);"/>
            <rect x="378.446" y="143.532" width="50.943" height="19.002" style="fill:white;stroke-width:6.84px;stroke:rgb(102,65,71);"/>
            <rect x="385.985" y="304.926" width="35.867" height="35.865" style="fill:white;stroke-width:6.84px;stroke:rgb(102,65,71);"/>
            <rect x="376.886" y="200.053" width="17.308" height="17.308" style="fill:white;stroke-width:6.84px;stroke:rgb(102,65,71);"/>
            <rect x="413.645" y="200.053" width="17.307" height="17.308" style="fill:white;stroke-width:6.84px;stroke:rgb(102,65,71);"/>
            <rect x="376.886" y="234.178" width="17.308" height="17.308" style="fill:white;stroke-width:6.84px;stroke:rgb(102,65,71);"/>
            <rect x="413.645" y="234.178" width="17.307" height="17.308" style="fill:white;stroke-width:6.84px;stroke:rgb(102,65,71);"/>
            <rect x="376.886" y="268.304" width="17.308" height="17.31" style="fill:white;stroke-width:6.84px;stroke:rgb(102,65,71);"/>
            <rect x="413.645" y="268.304" width="17.307" height="17.31" style="fill:white;stroke-width:6.84px;stroke:rgb(102,65,71);"/>
        </g>
        <g transform="matrix(0.103669,0,0,0.103669,71.3603,71.8264)">
            <path d="M361.764,340.791L361.764,268.525L176.28,268.525L176.28,395.503C176.28,395.503 177.079,435.225 151.433,429.191" style="fill:none;stroke-width:6.84px;stroke:rgb(102,65,71);"/>
            <rect x="194.634" y="296.005" width="17.308" height="17.306" style="fill:white;stroke-width:6.84px;stroke:rgb(102,65,71);"/>
            <rect x="236.521" y="296.005" width="17.308" height="17.306" style="fill:white;stroke-width:6.84px;stroke:rgb(102,65,71);"/>
            <rect x="278.409" y="296.005" width="17.308" height="17.306" style="fill:white;stroke-width:6.84px;stroke:rgb(102,65,71);"/>
            <rect x="320.296" y="296.005" width="17.308" height="17.306" style="fill:white;stroke-width:6.84px;stroke:rgb(102,65,71);"/>
            <path d="M315.393,254.875L315.393,224.897L269.021,254.875L269.021,224.897L222.651,254.875L222.651,224.897L176.28,254.875L176.28,268.525L361.764,268.525L361.764,224.897L315.393,254.875Z" style="fill:white;fill-rule:nonzero;stroke-width:6.84px;stroke:rgb(102,65,71);"/>
        </g>
        <g transform="matrix(0.103669,0,0,0.103669,71.3603,71.8264)">
            <path d="M378.748,93.451C378.748,85.765 372.549,79.534 364.901,79.534L332.949,79.534L311.83,79.534C319.477,79.534 325.674,73.302 325.674,65.614C325.674,57.929 319.478,51.697 311.83,51.697L277.345,51.697L256.225,51.697L190.125,51.697C182.478,51.697 176.28,57.929 176.28,65.614C176.28,73.302 182.478,79.534 190.125,79.534L243.198,79.534C235.553,79.534 229.354,85.765 229.354,93.451C229.354,101.137 235.553,107.369 243.198,107.369L364.902,107.369C372.549,107.37 378.748,101.137 378.748,93.451Z" style="fill:white;fill-rule:nonzero;stroke-width:6.84px;stroke:rgb(102,65,71);"/>
            <path d="M338.477,79.534L318.924,79.534" style="fill:white;fill-rule:nonzero;stroke-width:6.84px;stroke:rgb(102,65,71);"/>
            <path d="M243.198,79.534L279.85,79.534" style="fill:white;fill-rule:nonzero;stroke-width:6.84px;stroke:rgb(102,65,71);"/>
        </g>
    </g>
</svg>
